<svg id="logo" data-name="logo" xmlns="http://www.w3.org/2000/svg" viewBox="0 0 1200 500"><defs><style>.cls-1{fill:#fff;}.cls-2{fill:none;stroke:#fff;stroke-miterlimit:10;stroke-width:6px;}</style></defs><title>Casto logo_line</title><path class="cls-1" d="M528,258.68c0-34.44,25.18-57.4,63.05-57.4a62.42,62.42,0,0,1,20.75,3.82V242c-4-3.62-11.28-6.24-18.54-6.24-14.1,0-23.56,9.06-23.56,23,0,13.7,9.46,23,23.56,23,7.86,0,15.72-3,19.74-7.25v36.86c-5.23,3-14.7,4.84-21.95,4.84C553.2,316.09,528,293.12,528,258.68Z"/><path class="cls-1" d="M734.1,203.29V314.07H695.23l-.4-9.87A35.32,35.32,0,0,1,668,316.09c-24,0-40.08-14.51-40.08-36.46,0-22.16,19.53-36.86,48.74-36.86a132.58,132.58,0,0,1,17.12,1.41v-9.47h-59V203.29ZM693.82,271a85.16,85.16,0,0,0-11.88-1c-7.46,0-12.29,3.63-12.29,8.86,0,5.44,2.62,8.87,10.07,8.87C688,287.69,693.62,281.44,693.82,271Z"/><path class="cls-1" d="M748.12,301.58,763,277.41a68.28,68.28,0,0,0,31.63,7.46c5,0,8.66-1,8.66-3.63,0-3.22-5.64-4.63-14.71-6.85L782,272.78C762,268,748.52,260.49,748.52,242.16c0-24.57,18.93-40.88,47.94-40.88,18.53,0,34.44,4.23,45.72,12.08l-16.72,26a57,57,0,0,0-26.38-6.64c-5.84,0-9.67.8-9.67,3,0,2.62,5.24,4.23,12.69,6l6.44,1.61c21.15,5.24,35.66,14.3,35.66,35.05,0,22.76-20.35,37.67-50.16,37.67C775.91,316.09,760,311.45,748.12,301.58Z"/><path class="cls-1" d="M933.19,236.12H913.66v77.95H873.37V236.12H854V203.29h19.33V170.86h40.29v32.43h19.53Z"/><path class="cls-1" d="M939.18,258.68c0-34.44,24.77-57.4,62-57.4,36.86,0,61.63,23,61.63,57.4s-24.77,57.41-61.63,57.41C964,316.09,939.18,293.12,939.18,258.68Zm82,0c0-13.9-8.06-23-20.14-23s-20.35,9.06-20.35,23c0,13.7,8.26,23,20.35,23S1021.16,272.38,1021.16,258.68Z"/><path class="cls-2" d="M437,219.33a1.72,1.72,0,0,1-1.08,2.88H375.7c-19.33,0-29.74-8.21-44.89-23.57l-69.28-70.25h84.79Z"/><path class="cls-2" d="M287.39,154.62l-41.7-42.36a11.42,11.42,0,0,0-16.16,0L144,197.64a10.27,10.27,0,0,0,0,14.54l30,29.91-30,30.08a10.28,10.28,0,0,0,0,14.52l85.19,85.42a11.43,11.43,0,0,0,16.19,0l42.16-42.3-87.42-87.63Z"/><path class="cls-2" d="M437.11,265a1.71,1.71,0,0,0-1.08-2.88H375.77c-19.33,0-29.74,8.22-44.89,23.58L261.6,355.9h84.79Z"/></svg>
